<svg height="512" viewBox="0 0 512 512" width="512" xmlns="http://www.w3.org/2000/svg">
  <path d="M451 135l-105-30L316 0H106a45 45 0 00-45 45v422a45 45 0 0045 45h300a45 45 0 0045-45z" fill="#734bbd"/>
  <circle cx="136" cy="256" fill="#fff5f5" r="15"/>
  <circle cx="136" cy="316" fill="#fff5f5" r="15"/>
  <circle cx="136" cy="376" fill="#fff5f5" r="15"/>
  <path d="M451 135v332a45 45 0 01-45 45H256V0h60l30 105z" fill="#5f45a9"/>
  <path d="M346 271H196a15 15 0 110-30h150a15 15 0 110 30zM346 331H196a15 15 0 110-30h150a15 15 0 110 30z" fill="#fff5f5"/>
  <g>
    <path d="M346 391H196a15 15 0 110-30h150a15 15 0 110 30z" fill="#fff5f5"/>
  </g>
  <g fill="#e3e7ea">
    <path d="M256 391h90a15 15 0 100-30h-90zM256 331h90a15 15 0 100-30h-90zM256 271h90a15 15 0 100-30h-90z"/>
  </g>
  <path d="M451 135H346a30 30 0 01-30-30V0a14 14 0 0110.5 4.5l120 120A14 14 0 01451 135z" fill="#9b7ed0"/>
</svg>
