<svg  width="35" height="35" viewBox="0 0 512 512" xmlns="http://www.w3.org/2000/svg">
  <linearGradient id="a" gradientUnits="userSpaceOnUse" x1="256" x2="256" y1="512" y2="0">
    <stop offset="0" stop-color="#5558ff"/>
    <stop offset="1" stop-color="#00c0ff"/>
  </linearGradient>
  <path d="M467 331c-1-6-7-11-13-11l-64-4-23-13 30-4a15 15 0 00-3-29l-70 8-17-10 2-1c6-6 6-16 0-22l-2-1 17-10 70 8a15 15 0 003-29l-30-4 23-13 64-4c6 0 12-5 13-11l11-41c2-8-2-16-10-18l-41-11c-6-2-13 0-17 6l-35 53-23 13 12-28a15 15 0 00-27-11l-28 64-24 14-14-15v-21l42-56a15 15 0 00-24-18l-18 24v-26l28-57c3-6 2-13-2-18L267 4c-6-5-16-5-22 0l-30 31c-4 5-5 12-2 18l28 57v26l-18-24a15 15 0 00-24 18l42 56v21l-14 15-24-14-28-64c-3-8-12-12-19-8-8 3-11 12-8 19l12 28-23-13-35-53c-4-6-11-8-17-6l-41 11c-8 2-12 10-10 18l11 41c1 6 7 11 13 11l64 4 23 13-30 4a15 15 0 003 29l70-8 17 10-2 1c-6 6-6 16 0 22l2 1-17 10-70-8c-8-1-15 4-16 13-1 8 5 15 13 16l30 4-23 13-64 4c-6 0-12 5-13 11l-11 41c-2 8 2 16 10 18l41 11c6 2 13 0 17-6l35-53 23-13-12 28a15 15 0 0027 11l28-64 24-14 14 15v21l-42 56a15 15 0 0024 18l18-24v26l-28 57c-3 6-2 13 2 18l30 31a15 15 0 0022 0l30-31c4-5 5-12 2-18l-28-57v-26l18 24a15 15 0 0024-18l-42-56v-21l14-15 24 14 28 64a15 15 0 0027-11l-12-28 23 13 35 53c4 6 11 8 17 6l41-11c8-2 12-10 10-18z" fill="url(#a)"/>
</svg>
