<svg xmlns="http://www.w3.org/2000/svg" version="1.1" xmlns:xlink="http://www.w3.org/1999/xlink" xmlns:svgjs="http://svgjs.com/svgjs" width="1440" height="560" preserveAspectRatio="none" viewBox="0 0 1440 560">
    <g mask="url(&quot;#SvgjsMask1000&quot;)" fill="none">
        <rect width="1440" height="560" x="0" y="0" fill="#07182a"></rect>
        <path d="M0,456.681C91.277,448.736,183.029,452.86,265.838,413.653C356.314,370.816,450.289,315.684,490.977,224.222C531.565,132.986,495.527,29.635,480.596,-69.099C465.778,-167.089,471.869,-277.841,404.117,-350.169C336.818,-422.013,220.472,-404.09,130.142,-443.221C22.316,-489.932,-64.988,-638.237,-176.698,-601.779C-289.614,-564.927,-266.116,-387.182,-335.953,-291.105C-396.962,-207.173,-520.317,-177.372,-556.012,-79.942C-593.887,23.439,-578.916,143.359,-531.538,242.745C-484.502,341.412,-398.741,421.86,-297.341,462.672C-203.476,500.451,-100.802,465.455,0,456.681" fill="#0a1e31"></path>
        <path d="M1440 1083.842C1535.94 1073.44 1609.501 1001.778 1686.699 943.8720000000001 1758.487 890.024 1822.391 831.596 1874.079 758.237 1935.718 670.755 2034.3400000000001 582.599 2015.47 477.26 1996.512 371.432 1870.241 326.584 1785.0149999999999 261.043 1716.345 208.23399999999998 1641.011 174.50599999999997 1565.826 131.47500000000002 1464.006 73.19999999999999 1380.148-58.06600000000003 1264.794-36.697 1152.229-15.845000000000027 1130.489 140.334 1054.724 226.156 977.9870000000001 313.079 836.311 356.094 817.085 470.438 797.89 584.599 899.543 680.802 961.876 778.352 1016.0830000000001 863.185 1071.511 947.1700000000001 1156.346 1001.374 1241.037 1055.4859999999999 1340.084 1094.675 1440 1083.842" fill="#102c49"></path>
    </g>
    <defs>
        <mask id="SvgjsMask1000">
            <rect width="1440" height="560" fill="#ffffff"></rect>
        </mask>
    </defs>
</svg>