<svg width="194" height="194" viewBox="0 0 194 194" fill="none" xmlns="http://www.w3.org/2000/svg">
  <path d="M19.2 173.76L.71 68.88a23.3 23.3 0 01-.33-3.06 23.82 23.82 0 0120-24.07l35.65-6.29-.96 138.3H19.19z" fill="#35495E"/>
  <path d="M156.4 169.17a6.66 6.66 0 01-5.3 5L46.2 192.66a23.33 23.33 0 01-27.33-21.97 23.77 23.77 0 0118.67-23.76l29.4 8.25h-.04l-26.46 4.7a10 10 0 00-7.59 13.48 10.29 10.29 0 0011.45 6.12l80.19-14.15 31.92 3.83z" fill="#2C3E50"/>
  <path d="M66.9 155.2l-26.47 4.68a10 10 0 00-7.59 13.49 10.29 10.29 0 0011.45 6.12l80.19-14.15-57.59-10.15z" fill="#F9EAB0"/>
  <path d="M42.85 110.4L61.35 5.5a6.7 6.7 0 017.7-5.4l104.11 18.35a23.84 23.84 0 0120.03 24.08 24 24 0 01-.34 3.05l-18.5 104.9-131.5-40.09z" fill="#E64C3C"/>
  <path d="M151.4 34.84c-.2 0-.4-.01-.58-.05l-75.4-13.3a3.33 3.33 0 011.16-6.53l75.4 13.28a3.33 3.33 0 01-.58 6.6zM135.4 48.9c-.2 0-.4 0-.59-.04L85.64 40.2a3.33 3.33 0 011.16-6.56l49.17 8.66a3.33 3.33 0 01-.58 6.6z" fill="#3F5C6C"/>
  <path d="M142.34 63.78L73.5 51.6a3.33 3.33 0 00-3.86 2.7L63.84 87.1a3.33 3.33 0 002.7 3.86l68.85 12.16a3.33 3.33 0 003.86-2.7l5.8-32.79a3.33 3.33 0 00-2.7-3.85z" fill="#ECF0F1"/>
  <path d="M193.18 42.52a22.17 22.17 0 01-.33 3.06l-18.51 104.88-25.66-7.82 14.87-84.34 3.53-19.9 3.6-20.38 2.5.43a23.85 23.85 0 0120 24.07z" fill="#C03A2B"/>
  <path d="M154.67 123.34L50.55 105a6.66 6.66 0 10-2.3 13.11l104.89 18.47a10.03 10.03 0 017.55 13.52 10.22 10.22 0 01-11.41 6.09l-104.49-18.4a6.66 6.66 0 10-2.33 13.11l104.92 18.47a23.32 23.32 0 0027.33-21.94 23.89 23.89 0 00-20.04-24.1z" fill="#802F34"/>
  <path d="M160.7 150.1a10.22 10.22 0 01-11.43 6.09L44.8 137.79l3.46-19.68 104.89 18.47a10.03 10.03 0 017.55 13.52z" fill="#F9EAB0"/>
</svg>
