<svg width="111" height="65" viewBox="0 0 111 65" fill="none" xmlns="http://www.w3.org/2000/svg">
  <path d="M108.57 5.75h-7.25V3.72c.04-.8-.6-1.52-1.54-1.74A72.73 72.73 0 0084.41.38c-8.53 0-20.15 1.56-28.74 8.72C47.14 1.87 35.43.37 26.93.37a72.73 72.73 0 00-15.38 1.6c-.94.23-1.57.95-1.53 1.75v2H2.83C1.65 5.73.7 6.52.7 7.48V63.2c0 .97.95 1.75 2.13 1.75.37 0 .73-.08 1.05-.23.21-.09 21.53-9.63 51.3-3.49h.51c.17.02.34.02.51 0 29.85-6.2 51.17 3.33 51.3 3.5.66.3 1.47.3 2.13 0 .66-.32 1.07-.89 1.07-1.5V7.48c0-.96-.95-1.74-2.13-1.74zM4.97 60.42V9.24h5.09v43.75c-.01.96.93 1.75 2.1 1.76.12 0 .24 0 .35-.02 4.41-.55 8.87-.84 13.33-.87a66.7 66.7 0 0118.2 2.25 94.46 94.46 0 00-39.08 4.31zm20.87-10.03c-3.88 0-7.75.21-11.6.6V5.1c4.15-.76 8.39-1.14 12.64-1.15 7.98 0 18.98 1.5 26.61 8.55l.07 43.45c-4.44-2.37-13.1-5.56-27.72-5.56zm31.98-37.9c7.63-6.97 18.64-8.54 26.61-8.54 4.25 0 8.5.4 12.65 1.15V51c-3.83-.4-7.68-.61-11.54-.63-14.54 0-23.22 3.2-27.72 5.57V12.5zm48.6 47.93a94.48 94.48 0 00-39.17-4.31 66.87 66.87 0 0118.29-2.25c4.49.02 8.97.3 13.41.85 1.17.15 2.25-.5 2.43-1.46.02-.1.03-.19.02-.28V9.24h5.1l-.09 51.18z" fill="#35495E" fill-opacity=".1"/>
</svg>
