<svg xmlns="http://www.w3.org/2000/svg" width="1440" height="560" preserveAspectRatio="none" viewBox="0 0 1440 560">
  <g mask="url(&quot;#mask-1&quot;)" fill="none">
    <path fill="rgba(15, 25, 39, 1)" d="M0 0h1440v560H0z"/>
    <path d="M752 400l-1 408" stroke-width="10" stroke="url(#grad-2)" stroke-linecap="round" class="Up"/>
    <path d="M878 507l-1-148" stroke-width="8" stroke="url(#grag-1)" stroke-linecap="round" class="Down"/>
    <path d="M728 447l-1-313" stroke-width="8" stroke="url(#grag-1)" stroke-linecap="round" class="Down"/>
    <path d="M431 158l-1-277" stroke-width="8" stroke="url(#grad-2)" stroke-linecap="round" class="Up"/>
    <path d="M1090 238l-1-256" stroke-width="8" stroke="url(#grag-1)" stroke-linecap="round" class="Down"/>
    <path d="M258 189l-1-272" stroke-width="6" stroke="url(#grag-1)" stroke-linecap="round" class="Down"/>
    <path d="M432 468l-1-201M585 191l-1 378" stroke-width="6" stroke="url(#grad-2)" stroke-linecap="round" class="Up"/>
    <path d="M1179 160l-1-409" stroke-width="10" stroke="url(#grad-2)" stroke-linecap="round" class="Up"/>
    <path d="M720 321l-1-249" stroke-width="10" stroke="url(#grag-1)" stroke-linecap="round" class="Down"/>
    <path d="M1070 542l-1-416" stroke-width="6" stroke="url(#grad-2)" stroke-linecap="round" class="Up"/>
    <path d="M543 48l-1-410" stroke-width="10" stroke="url(#grag-1)" stroke-linecap="round" class="Down"/>
    <path d="M190 393l-1 342" stroke-width="8" stroke="url(#grag-1)" stroke-linecap="round" class="Down"/>
  </g>
  <defs>
    <linearGradient x1="0%" y1="0%" x2="0%" y2="100%" id="grag-1">
      <stop stop-color="rgba(173, 177, 255, 0)" offset="0"/>
      <stop stop-color="rgba(173, 177, 255, 1)" offset="1"/>
    </linearGradient>
    <linearGradient x1="0%" y1="100%" x2="0%" y2="0%" id="grad-2">
      <stop stop-color="rgba(173, 177, 255, 0)" offset="0"/>
      <stop stop-color="rgba(173, 177, 255, 1)" offset="1"/>
    </linearGradient>
    <mask id="mask-1">
      <path fill="#fff" d="M0 0h1440v560H0z"/>
    </mask>
  </defs>
</svg>
