<svg width="70" height="80" viewBox="0 0 80 90" fill="none" xmlns="http://www.w3.org/2000/svg">
  <path d="M40.5 0a23.17 23.17 0 00-23.1 23.1c0 12.72 10.4 23.12 23.1 23.12 12.72 0 23.11-10.4 23.11-23.11C63.61 10.39 53.22 0 40.51 0zM80.16 64.68a21.55 21.55 0 00-2.32-4.24 28.72 28.72 0 00-19.88-12.5c-1-.11-2.12.1-2.92.7a24.31 24.31 0 01-14.53 4.74c-5.25 0-10.3-1.61-14.53-4.74-.81-.6-1.92-.91-2.93-.7A28.51 28.51 0 00.85 64.67c-.3.6-.2 1.31.1 1.92.8 1.41 1.82 2.82 2.73 4.04a38.35 38.35 0 004.64 5.24 60.48 60.48 0 004.64 4.04A45.72 45.72 0 0040.4 89c9.88 0 19.47-3.13 27.44-9.08a44.37 44.37 0 004.64-4.04 46.6 46.6 0 007.37-9.28c.5-.6.6-1.31.3-1.92z" fill="#1A202A"/>
</svg>
