<svg width="632" height="386" viewBox="0 0 632 386" fill="none" xmlns="http://www.w3.org/2000/svg">
  <path d="M157.98 158.68h-86.4l-4.9-4.32 91.3-146.02h19.58v146.02h13.25l.29 4.32h-13.54v34.85l19.59 1.15c0 .2-.1 1.63-.3 4.32l-57.6.29c0-1.73.1-3.07.3-4.03l14.97-2.02c1.92-.2 3.07-1.44 3.46-3.74v-30.82zm0-4.32V16.7l-86.4 137.66h86.4zm374.62 4.32h-86.4l-4.9-4.32L532.6 8.34h19.59v146.02h13.25l.28 4.32H552.2v34.85l19.58 1.15c0 .2-.1 1.63-.29 4.32l-57.6.29c0-1.73.1-3.07.3-4.03l14.97-2.02c1.92-.2 3.07-1.44 3.45-3.74v-30.82zm0-4.32V16.7l-86.4 137.66h86.4z" fill="#E64C3C"/>
  <path d="M316.26 5.18c-15.74 0-29.18 8.64-40.32 25.92s-16.7 41.18-16.7 71.7c0 30.54 5.37 53.67 16.12 69.42 10.76 15.74 24.1 23.61 40.04 23.61 15.93 0 29.47-8.54 40.6-25.63 11.14-17.28 16.7-41 16.7-71.14 0-30.33-5.46-53.56-16.4-69.7-10.76-16.12-24.1-24.18-40.04-24.18zm-.86 194.97c-21.7 0-39.75-8.16-54.15-24.48-14.4-16.51-21.6-40.8-21.6-72.86 0-32.07 7.4-57.03 22.18-74.88C276.6 9.88 294.76.86 316.26.86 337.96.86 356 9.3 370.4 26.2c14.6 16.7 21.9 40.9 21.9 72.58s-7.4 56.54-22.18 74.59c-14.79 17.85-33.03 26.78-54.72 26.78z" fill="#35495E"/>
  <path d="M.1 286.36l.14-2.16h19.73l56.02 96.77-.72-91.73c-.39-.96-.92-1.49-1.59-1.58l-13.25-1.16c-.1-.57-.14-1.3-.14-2.16l27.36-.14.14 2.16-9.21 1V385H68.07l-56.02-96.77.72 93.75 16.42.86-.15 2.16-28.94.14.14-2.01 7.49-1.01c.96-.1 1.54-.72 1.73-1.87V289.1c-.2-1.16-.77-1.78-1.73-1.88l-7.63-.86zm128.47 99.22c-9.98 0-18.1-2.88-24.33-8.64-6.15-5.76-9.22-14.55-9.22-26.36 0-11.9 3.26-21.21 9.8-27.93 6.62-6.82 14.92-10.23 24.9-10.23 9.99 0 18.1 2.88 24.34 8.64 6.24 5.76 9.36 14.6 9.36 26.5 0 11.8-3.31 21.12-9.94 27.94-6.52 6.72-14.83 10.08-24.9 10.08zm1-70.56c-7.2 0-13.2 3.12-18 9.36-4.8 6.24-7.2 14.73-7.2 25.48 0 10.66 2.27 18.87 6.78 24.63 4.6 5.66 10.5 8.5 17.7 8.5 7.2 0 13.2-3.13 18-9.37 4.8-6.24 7.2-14.68 7.2-25.34s-2.3-18.86-6.9-24.62c-4.52-5.76-10.37-8.64-17.57-8.64zm74.06 67.24l5.62-.28.43 1.44c-.1 0-.77.14-2.02.43-2.88.67-6.1 1-9.65 1-3.26-.19-6.23-.71-8.92-1.58-2.7-.96-5.19-2.88-7.5-5.76-2.3-2.97-3.45-6.77-3.45-11.37v-50.55h-7.34l1.15-1.15 6.34-1.3 1.15-13.82 8.06-.72V313h17.43v2.6H187.5v48.09c0 7.3 1.54 12.24 4.61 14.83 3.07 2.5 6.91 3.74 11.52 3.74zm60.54 2.88l.15-2.01 7.49-1.01c.86-.1 1.3-.77 1.3-2.02v-64.5h-7.35l1.15-1.16 6.2-1.3v-17.56c0-6.63 2.15-11.38 6.47-14.26 4.32-2.98 9.36-4.46 15.12-4.46 3.84 0 7.1.52 9.8 1.58l-.44 1c-2.3-.28-4.32-.42-6.05-.42-1.63 0-3.26.24-4.9.72a17.4 17.4 0 00-4.89 2.59c-3.84 2.78-5.76 8.3-5.76 16.56V313h17.43v2.6h-17.43v66.52l12.24.72-.14 2.16-30.39.14zm80.26.44c-9.98 0-18.1-2.88-24.34-8.64-6.14-5.76-9.21-14.55-9.21-26.36 0-11.9 3.26-21.21 9.79-27.93 6.62-6.82 14.93-10.23 24.91-10.23 9.99 0 18.1 2.88 24.34 8.64 6.24 5.76 9.36 14.6 9.36 26.5 0 11.8-3.31 21.12-9.94 27.94-6.53 6.72-14.83 10.08-24.91 10.08zm1-70.56c-7.2 0-13.2 3.12-18 9.36-4.8 6.24-7.2 14.73-7.2 25.48 0 10.66 2.26 18.87 6.78 24.63 4.6 5.66 10.5 8.5 17.7 8.5 7.2 0 13.2-3.13 18-9.37 4.8-6.24 7.2-14.68 7.2-25.34s-2.3-18.86-6.9-24.62c-4.52-5.76-10.37-8.64-17.57-8.64zm44.25.28l-.14-2.16 19.44-.14v50.11c0 3.75.53 7.01 1.58 9.8 1.06 2.68 2.21 4.65 3.46 5.9a14.35 14.35 0 004.6 2.88c2.7.96 4.95 1.34 6.77 1.15 5.86-.1 12.53-3.12 20.02-9.07v-55.73a2.84 2.84 0 00-2.45-2.02l-7.49-.72c-.1-.57-.14-1.3-.14-2.16l19.44-.14v65.38c.2 2.4.96 3.6 2.3 3.6l8.64.43-.14 2.16a87.5 87.5 0 01-14.4 1.15c-1.15-.1-2.4-.72-3.74-1.87a6.04 6.04 0 01-2.02-4.61v-2.6c-8.74 5.86-17 8.8-24.77 8.8-3.26 0-7.1-.82-11.52-2.46a13.3 13.3 0 01-6.91-5.9c-1.73-2.98-2.6-6.67-2.6-11.09v-47.8c0-.49-.28-.92-.86-1.3a2.9 2.9 0 00-1.58-.87l-7.49-.72zm86.89 69.84l.14-2.01 7.49-1.01c.86-.1 1.3-.77 1.3-2.02v-62.35c-.2-.77-.48-1.15-.87-1.15l-8.78-.29.14-2.01c6.05-.87 10.13-1.3 12.24-1.3 3.84 0 6 1.68 6.48 5.04h.15v3.02c7.87-5.37 15.4-8.2 22.6-8.5 7.01 0 12.34 1.4 15.99 4.18 1.63 1.25 3.07 3.22 4.32 5.9 1.34 2.6 2.01 5.72 2.01 9.37v50.11l10.8.72c0 .1-.04.82-.14 2.16l-28.8.14c0-.86.05-1.53.14-2.01l7.5-1.01c.76-.1 1.14-.77 1.14-2.02v-44.5c0-3.83-.52-7.1-1.58-9.78-.96-2.7-2.06-4.66-3.31-5.9a12.54 12.54 0 00-4.61-2.89 19.23 19.23 0 00-6.62-1.15c-5.76.1-12.24 2.35-19.44 6.77v59.47l10.8.72-.15 2.16-28.94.14zM620.22 282.9v94.61c0 2.98.77 4.47 2.3 4.47l8.65.43-.15 2.16a87.5 87.5 0 01-14.4 1.15 6.89 6.89 0 01-3.45-1.58 5.6 5.6 0 01-2.02-3.75c-5.47 3.46-11.8 5.19-19 5.19-7.01 0-13.5-1.97-19.45-5.9-3.36-2.22-6.1-5.67-8.2-10.38-2.02-4.8-3.03-10.6-3.03-17.42 0-12.58 3.22-22.18 9.65-28.8 6.82-7.1 14.6-10.66 23.33-10.66 5.37 0 10.85 1.4 16.41 4.18v-34.42c0-1.05-.28-1.58-.86-1.58l-8.78-.29.14-2.01c6.05-.87 10.18-1.3 12.38-1.3 2.3 0 3.94.62 4.9 1.87a6.13 6.13 0 011.58 4.03zm-26.2 100.08c5.85 0 11.47-1.3 16.84-3.88v-60.2c-4.22-2.59-8.4-3.88-12.52-3.88-8.26 0-14.93 3.16-20.02 9.5-5 6.34-7.49 15.4-7.49 27.22 0 20.83 7.73 31.24 23.19 31.24z" fill="#E64C3C"/>
</svg>
